# xmcd CD database file
#
# Track frame offsets:
#	150
#	900
#	1650
#	2400
#	3150
#	3900
#	4650
#	5400
#	6150
#	6900
#	7650
#	8400
#	9150
#
# Disc length: 3463 seconds
#
# Revision: 1
# Processed by: cddbd v1.5.1PL0 Copyright (c) Steve Scherf et al.
# Submitted via: CDex 1.51
#
DISCID=4d0d850d
DTITLE=BoA - VALENTI
DYEAR=2003
DGENRE=New Age
TTITLE0=VALENTI
TTITLE1=JEWEL SONG
TTITLE2=B.I.O
TTITLE3=SEKAI NO KATASUMIDE
TTITLE4=KISEKI
TTITLE5=WINDING ROAD
TTITLE6=Searching for truth
TTITLE7=Moon and Sunrise
TTITLE8=Discovery
TTITLE9=flower
TTITLE10=BESIDE YOU
TTITLE11=Feel the same
TTITLE12=NO.1
EXTD=YEAR: 2003
EXTT0=
EXTT1=
EXTT2=
EXTT3=
EXTT4=
EXTT5=
EXTT6=
EXTT7=
EXTT8=
EXTT9=
EXTT10=
EXTT11=
EXTT12=
PLAYORDER=
